<svg width="189" height="36" viewBox="0 0 189 36" fill="none" xmlns="http://www.w3.org/2000/svg">
<path d="M54.1858 26.8525L56.2431 22.2034H65.7017L67.759 26.8525H71.0187L63.0298 8.95081H58.9685L50.9795 26.8525H54.1858ZM59.8235 14.161L60.8655 11.6227H61.0793L62.1213 14.161L64.5527 19.6117H57.3921L59.8235 14.161ZM77.8855 27.1197C81.3056 27.1197 83.069 24.9822 83.4965 22.7378H83.6568V26.8525H86.302V13.5732H83.4431V20.1461C83.4431 23.0317 82.0804 24.528 79.1413 24.528C76.3358 24.528 75.1869 23.2722 75.1869 20.7873V13.5732H72.328V21.5622C72.328 24.6349 74.1449 27.1197 77.8855 27.1197ZM97.634 26.8525V24.2608H95.2293C93.5727 24.2608 92.8246 23.8333 92.8246 22.2034V15.9779H97.634V13.5732H92.8246V10.6608H89.9656V13.5732H87.7212V15.9779H89.9656V22.3637C89.9656 25.5967 91.7291 26.8525 94.588 26.8525H97.634ZM106.226 27.1197C110.661 27.1197 113.627 24.3142 113.627 20.2262C113.627 16.0848 110.661 13.306 106.226 13.306C101.817 13.306 98.8512 16.0848 98.8512 20.2262C98.8512 24.3142 101.817 27.1197 106.226 27.1197ZM106.226 24.5547C103.019 24.5547 101.683 23.0317 101.683 20.2262C101.683 17.394 103.019 15.8443 106.226 15.8443C109.459 15.8443 110.795 17.394 110.795 20.2262C110.795 23.0317 109.459 24.5547 106.226 24.5547ZM118.607 26.8525V20.2797C118.607 17.394 119.916 15.8977 122.828 15.8977C125.58 15.8977 126.702 17.1535 126.702 19.6384V26.8525H129.588V18.8636C129.588 15.7909 127.771 13.306 124.084 13.306C120.717 13.306 118.954 15.4435 118.553 17.6879H118.366V13.5732H115.721V26.8525H118.607ZM138.946 27.1197C143.381 27.1197 146.347 24.3142 146.347 20.2262C146.347 16.0848 143.381 13.306 138.946 13.306C134.537 13.306 131.572 16.0848 131.572 20.2262C131.572 24.3142 134.537 27.1197 138.946 27.1197ZM138.946 24.5547C135.74 24.5547 134.404 23.0317 134.404 20.2262C134.404 17.394 135.74 15.8443 138.946 15.8443C142.179 15.8443 143.515 17.394 143.515 20.2262C143.515 23.0317 142.179 24.5547 138.946 24.5547ZM151.327 26.8525V20.2797C151.327 17.3406 152.315 15.8977 155.174 15.8977C157.739 15.8977 158.755 17.0199 158.755 19.6384V26.8525H161.614V20.2797C161.614 17.3406 162.629 15.8977 165.461 15.8977C168.026 15.8977 169.068 17.0199 169.068 19.6384V26.8525H171.927V18.8636C171.927 15.6573 170.19 13.306 166.744 13.306C163.377 13.306 161.881 15.4168 161.534 17.6879H161.373C160.999 15.1496 159.369 13.306 156.35 13.306C153.037 13.306 151.594 15.3634 151.247 17.581H151.086V13.5732H148.441V26.8525H151.327ZM176.645 31.3948C179.371 31.3948 180.867 30.6734 181.963 28.2954L188.883 13.5732H185.703L182.577 20.6003L181.321 23.8066H181.107L179.798 20.627L176.405 13.5732H173.172L179.718 26.8525L179.397 27.5472C178.997 28.4557 178.516 28.7763 177.34 28.7763H174.748V31.3948H176.645Z" fill="white"/>
<path fill-rule="evenodd" clip-rule="evenodd" d="M22.7581 5.15296C22.7581 7.57601 20.7938 9.54029 18.3708 9.54029C15.9477 9.54029 13.9834 7.57601 13.9834 5.15296C13.9834 2.7299 15.9477 0.765625 18.3708 0.765625C20.7938 0.765625 22.7581 2.7299 22.7581 5.15296ZM26.042 30.6393C26.042 28.2162 24.0777 26.252 21.6547 26.252L4.38697 26.2519C1.96391 26.2519 -0.000366211 28.2162 -0.000366211 30.6393C-0.000366211 33.0623 1.96391 35.0266 4.38697 35.0266L21.6547 35.0266C24.0777 35.0266 26.042 33.0623 26.042 30.6393ZM29.7107 30.6393C29.7107 33.0623 31.675 35.0266 34.098 35.0266C36.5211 35.0266 38.4854 33.0623 38.4854 30.6393C38.4854 28.2162 36.5211 26.252 34.098 26.252C31.675 26.252 29.7107 28.2162 29.7107 30.6393ZM5.34963 17.4134C5.34963 19.8365 7.31391 21.8008 9.73697 21.8008L27.0047 21.8008C29.4277 21.8008 31.392 19.8365 31.392 17.4135C31.392 14.9904 29.4277 13.0261 27.0047 13.0261L9.73697 13.0261C7.31391 13.0261 5.34963 14.9904 5.34963 17.4134Z" fill="url(#paint0_linear_1_47)"/>
<defs>
<linearGradient id="paint0_linear_1_47" x1="23.9398" y1="-1.73945" x2="0.000211719" y2="35.027" gradientUnits="userSpaceOnUse">
<stop stop-color="#FF8E56"/>
<stop offset="1" stop-color="#FF3A3F"/>
</linearGradient>
</defs>
</svg>
