<svg width="80" height="19" viewBox="0 0 80 19" fill="none" xmlns="http://www.w3.org/2000/svg">
<mask id="mask0_123_143" style="mask-type:alpha" maskUnits="userSpaceOnUse" x="0" y="4" width="79" height="11">
<path d="M0.566588 14V4.77647H2.04235L3.95294 8.94024L5.86353 4.77647H7.33929V14H6.00847V7.43812L4.50635 10.7322H3.39953L1.89741 7.45129V14H0.566588ZM11.2607 14.1581C10.7425 14.1581 10.3076 14.0703 9.95626 13.8946C9.60489 13.7101 9.34136 13.4685 9.16568 13.1699C8.98999 12.8624 8.90215 12.5286 8.90215 12.1685C8.90215 11.5272 9.13493 11.0265 9.6005 10.6664C10.0749 10.3062 10.7425 10.1261 11.6033 10.1261H13.2899V9.98118C13.2899 8.99733 12.8331 8.50541 11.9196 8.50541C11.5418 8.50541 11.2212 8.58886 10.9577 8.75576C10.7029 8.91388 10.5316 9.17302 10.4438 9.53318H9.04709C9.11736 8.848 9.41164 8.30777 9.92991 7.91247C10.457 7.50839 11.1202 7.30635 11.9196 7.30635C12.8858 7.30635 13.5886 7.54353 14.0278 8.01788C14.467 8.49224 14.6866 9.14667 14.6866 9.98118V14H13.5007L13.3821 13.0381H13.2899C13.0967 13.3456 12.8551 13.6091 12.5652 13.8287C12.2753 14.0483 11.8405 14.1581 11.2607 14.1581ZM11.5243 12.9854C12.0952 12.9854 12.5213 12.8141 12.8024 12.4715C13.0923 12.1202 13.2504 11.6765 13.2767 11.1407H11.7483C11.2476 11.1407 10.8918 11.2242 10.681 11.3911C10.4789 11.5492 10.3779 11.7732 10.3779 12.0631C10.3779 12.3529 10.4789 12.5813 10.681 12.7482C10.8918 12.9064 11.1729 12.9854 11.5243 12.9854ZM13.1845 6.56847C12.9473 6.56847 12.7497 6.48502 12.5916 6.31812C12.4334 6.15122 12.3544 5.95796 12.3544 5.73835C12.3544 5.50996 12.4334 5.31671 12.5916 5.15859C12.7497 4.99169 12.9473 4.90824 13.1845 4.90824C13.4129 4.90824 13.6018 4.99169 13.7511 5.15859C13.9092 5.31671 13.9883 5.50996 13.9883 5.73835C13.9883 5.95796 13.9092 6.15122 13.7511 6.31812C13.6018 6.48502 13.4129 6.56847 13.1845 6.56847ZM10.6678 6.56847C10.4394 6.56847 10.2461 6.48502 10.088 6.31812C9.92991 6.15122 9.85085 5.95796 9.85085 5.73835C9.85085 5.50996 9.92991 5.31671 10.088 5.15859C10.2461 4.99169 10.4394 4.90824 10.6678 4.90824C10.8962 4.90824 11.0894 4.99169 11.2476 5.15859C11.4057 5.31671 11.4847 5.50996 11.4847 5.73835C11.4847 5.95796 11.4057 6.15122 11.2476 6.31812C11.0894 6.48502 10.8962 6.56847 10.6678 6.56847ZM19.8071 14.1581C18.9463 14.1581 18.2611 13.9561 17.7516 13.552C17.2421 13.1479 16.9522 12.6121 16.8819 11.9445H18.3182C18.3709 12.2519 18.5246 12.5023 18.7794 12.6955C19.0429 12.8888 19.3899 12.9854 19.8203 12.9854C20.2332 12.9854 20.5494 12.902 20.769 12.7351C20.9974 12.5594 21.1116 12.3573 21.1116 12.1289C21.1116 11.7951 20.9754 11.5667 20.7031 11.4438C20.4396 11.3208 20.0487 11.2285 19.5304 11.1671C19.0824 11.1144 18.6739 11.0133 18.305 10.864C17.9448 10.7059 17.6594 10.4951 17.4485 10.2315C17.2377 9.95922 17.1323 9.62102 17.1323 9.21694C17.1323 8.64596 17.3563 8.18478 17.8043 7.83341C18.2523 7.48204 18.876 7.30635 19.6754 7.30635C20.4747 7.30635 21.094 7.48643 21.5332 7.84659C21.9724 8.20675 22.2272 8.69867 22.2975 9.32235H20.9535C20.9183 9.05882 20.7822 8.85239 20.545 8.70306C20.3078 8.54494 20.0135 8.46588 19.6622 8.46588C19.302 8.46588 19.0165 8.53616 18.8057 8.67671C18.5949 8.80847 18.4895 8.98416 18.4895 9.20377C18.4895 9.67812 18.999 9.968 20.0179 10.0734C20.5011 10.1261 20.9315 10.2184 21.3092 10.3501C21.687 10.4731 21.9856 10.6707 22.2052 10.9431C22.4248 11.2066 22.5346 11.5799 22.5346 12.0631C22.5434 12.4584 22.4292 12.8141 22.1921 13.1304C21.9637 13.4466 21.643 13.6969 21.2302 13.8814C20.8261 14.0659 20.3517 14.1581 19.8071 14.1581ZM28.3667 14C27.7254 14 27.2159 13.8463 26.8382 13.5388C26.4605 13.2226 26.2716 12.6648 26.2716 11.8654V8.65035H24.6246V7.46447H25.5996C26.0476 7.46447 26.3111 7.24486 26.3902 6.80565L26.5879 5.75153H27.6683V7.46447H30.2509V8.65035H27.6683V11.8391C27.6683 12.1816 27.743 12.4232 27.8923 12.5638C28.0504 12.6955 28.3184 12.7614 28.6961 12.7614H30.2246V14H28.3667ZM35.6349 14.1581C35.0025 14.1581 34.4447 14.0176 33.9615 13.7365C33.4784 13.4466 33.1007 13.0469 32.8283 12.5374C32.556 12.0279 32.4199 11.435 32.4199 10.7586C32.4199 10.0734 32.5516 9.47169 32.8152 8.95341C33.0875 8.43514 33.4652 8.03106 33.9483 7.74118C34.4403 7.45129 35.0069 7.30635 35.6481 7.30635C36.2806 7.30635 36.8252 7.45129 37.282 7.74118C37.7388 8.02228 38.0902 8.4 38.3361 8.87435C38.5909 9.34871 38.7182 9.87137 38.7182 10.4424C38.7182 10.5302 38.7182 10.6268 38.7182 10.7322C38.7182 10.8289 38.7138 10.9387 38.7051 11.0616H33.7902C33.8342 11.6678 34.0318 12.1289 34.3832 12.4452C34.7345 12.7526 35.1474 12.9064 35.6218 12.9064C36.0346 12.9064 36.3596 12.8229 36.5968 12.656C36.8428 12.4803 37.0229 12.2431 37.1371 11.9445H38.5469C38.3888 12.5682 38.0594 13.0952 37.5587 13.5256C37.058 13.9473 36.4167 14.1581 35.6349 14.1581ZM35.6349 8.51859C35.2045 8.51859 34.8224 8.65035 34.4886 8.91388C34.1548 9.16863 33.9396 9.52878 33.8429 9.99435H37.3215C37.2864 9.55514 37.1151 9.19937 36.8076 8.92706C36.5002 8.65475 36.1093 8.51859 35.6349 8.51859ZM40.5183 14V12.7878H42.1126V9.11153C42.1126 8.82165 41.9721 8.67671 41.691 8.67671H40.65V7.46447H42.218C42.5782 7.46447 42.8725 7.56988 43.1008 7.78071C43.3292 7.98275 43.4434 8.26824 43.4434 8.63718V8.79529H43.5093C43.6059 8.30337 43.8124 7.93443 44.1286 7.68847C44.4536 7.43373 44.9236 7.30635 45.5385 7.30635H46.5531V8.78212H45.13C44.6118 8.78212 44.2121 8.9622 43.931 9.32235C43.6499 9.68251 43.5093 10.1129 43.5093 10.6136V12.7878H45.5385V14H40.5183ZM50.5141 14L47.6811 7.46447H49.2623L51.3573 12.5242L53.4656 7.46447H55.0336L52.1875 14H50.5141ZM59.3371 14.1581C58.7047 14.1581 58.1469 14.0176 57.6637 13.7365C57.1806 13.4466 56.8029 13.0469 56.5306 12.5374C56.2582 12.0279 56.1221 11.435 56.1221 10.7586C56.1221 10.0734 56.2538 9.47169 56.5174 8.95341C56.7897 8.43514 57.1674 8.03106 57.6506 7.74118C58.1425 7.45129 58.7091 7.30635 59.3503 7.30635C59.9828 7.30635 60.5274 7.45129 60.9842 7.74118C61.441 8.02228 61.7924 8.4 62.0383 8.87435C62.2931 9.34871 62.4204 9.87137 62.4204 10.4424C62.4204 10.5302 62.4204 10.6268 62.4204 10.7322C62.4204 10.8289 62.416 10.9387 62.4073 11.0616H57.4924C57.5364 11.6678 57.734 12.1289 58.0854 12.4452C58.4367 12.7526 58.8496 12.9064 59.324 12.9064C59.7368 12.9064 60.0618 12.8229 60.299 12.656C60.545 12.4803 60.7251 12.2431 60.8393 11.9445H62.2491C62.091 12.5682 61.7616 13.0952 61.2609 13.5256C60.7602 13.9473 60.1189 14.1581 59.3371 14.1581ZM59.3371 8.51859C58.9067 8.51859 58.5246 8.65035 58.1908 8.91388C57.857 9.16863 57.6418 9.52878 57.5451 9.99435H61.0237C60.9886 9.55514 60.8173 9.19937 60.5098 8.92706C60.2024 8.65475 59.8115 8.51859 59.3371 8.51859ZM64.2205 14V12.7878H65.8148V9.11153C65.8148 8.82165 65.6743 8.67671 65.3932 8.67671H64.3522V7.46447H65.9202C66.2804 7.46447 66.5747 7.56988 66.8031 7.78071C67.0314 7.98275 67.1456 8.26824 67.1456 8.63718V8.79529H67.2115C67.3081 8.30337 67.5146 7.93443 67.8308 7.68847C68.1558 7.43373 68.6258 7.30635 69.2407 7.30635H70.2553V8.78212H68.8322C68.314 8.78212 67.9143 8.9622 67.6332 9.32235C67.3521 9.68251 67.2115 10.1129 67.2115 10.6136V12.7878H69.2407V14H64.2205ZM72.3979 14V4.51294H73.7946V10.2052L76.2981 7.46447H78.0506L75.3231 10.3633V10.4687L78.4064 14H76.7066L73.7946 10.64V14H72.3979Z" fill="black"/>
</mask>
<g mask="url(#mask0_123_143)">
<rect x="-225" y="-39" width="662" height="96" fill="#FFC67E"/>
</g>
</svg>
