<svg xmlns="http://www.w3.org/2000/svg" xmlns:xlink="http://www.w3.org/1999/xlink" width="43" height="44" viewBox="0 0 43 44">
    <defs>
        <path id="prefix__a" d="M21.603.024c-.194 0-.35.157-.35.35v10.335c.236.058.47.124.701.197V.373c0-.192-.157-.35-.35-.35zm1.863.429L22.35 11.04c.229.082.454.171.677.267L24.164.526c.02-.192-.12-.365-.312-.384-.013-.002-.025-.002-.038-.002-.177 0-.33.133-.348.313zM19.355.142c-.193.019-.333.192-.313.384l1.05 9.957c.242.034.481.076.719.126L19.74.453c-.019-.18-.171-.313-.349-.313-.012 0-.025 0-.037.002zm6.304.62l-2.281 10.703c.219.102.435.213.646.33L26.346.906c.04-.188-.081-.374-.27-.415-.026-.005-.05-.008-.074-.008-.162 0-.308.113-.343.278zm-8.528-.27c-.19.04-.31.227-.27.415l2.019 9.471c.244.008.487.024.728.048L17.548.762c-.036-.165-.182-.278-.344-.278-.024 0-.049.003-.073.008zm10.677.806L24.33 11.969c.208.121.412.25.612.386l3.534-10.841c.06-.184-.042-.381-.226-.44-.036-.013-.072-.018-.108-.018-.148 0-.286.094-.334.242zm-12.852-.225c-.184.06-.285.257-.225.44l2.898 8.892c.243-.019.485-.03.727-.032l-2.957-9.075c-.049-.148-.187-.242-.334-.242-.036 0-.073.005-.109.017zm14.933.982L25.206 12.54c.195.14.386.287.572.439l4.752-10.64c.078-.176 0-.383-.178-.461-.046-.02-.095-.03-.143-.03-.134 0-.262.077-.32.207zm-17.034-.177c-.178.078-.257.285-.178.462l3.678 8.236c.24-.047.479-.084.717-.114l-3.754-8.407c-.058-.13-.187-.208-.32-.208-.049 0-.097.01-.143.03zm19.023 1.146L26.003 13.17c.182.156.358.318.529.486l5.955-10.28c.096-.168.038-.382-.13-.479-.054-.031-.115-.047-.174-.047-.121 0-.24.063-.305.175zm-21.03-.128c-.168.097-.225.311-.129.478l4.356 7.521c.151-.046.304-.09.458-.131.08-.022.161-.042.241-.061l-4.446-7.679c-.066-.112-.184-.175-.305-.175-.06 0-.12.015-.175.047zm22.908 1.3l-7.033 9.65c.167.17.329.347.483.529l7.118-9.767c.114-.156.079-.375-.078-.489-.062-.045-.134-.067-.206-.067-.108 0-.215.05-.284.145zM8.96 4.12c-.157.114-.191.333-.077.49l4.914 6.741c.223-.091.449-.178.679-.258L9.45 4.197c-.068-.094-.175-.145-.284-.145-.071 0-.144.022-.206.067zM35.5 5.557l-8.134 9.007c.15.183.295.37.434.563l8.222-9.102c.13-.143.118-.364-.026-.493-.067-.06-.151-.09-.235-.09-.096 0-.191.039-.26.115zM7.21 5.532c-.144.129-.155.35-.025.493l5.348 5.92c.213-.114.43-.221.65-.324L7.705 5.557c-.07-.076-.165-.115-.26-.115-.085 0-.168.03-.235.09zm29.882 1.56l-9.16 8.223c.135.194.264.393.385.596l9.245-8.299c.144-.129.156-.35.026-.493-.07-.077-.165-.116-.261-.116-.084 0-.168.03-.235.09zM5.62 7.12c-.13.143-.119.364.026.493l5.652 5.074c.2-.135.405-.265.614-.39L6.114 7.093c-.067-.06-.15-.09-.234-.09-.096 0-.192.039-.261.116zm32.895 1.666l-10.09 7.308c.119.203.23.411.335.623l10.168-7.365c.157-.113.191-.332.078-.488-.07-.094-.176-.144-.285-.144-.071 0-.144.021-.206.066zm-34.312.078c-.114.156-.08.375.077.488l5.832 4.224c.186-.154.375-.305.57-.451l-5.99-4.339c-.061-.045-.133-.066-.205-.066-.108 0-.215.05-.284.144zm-1.227 1.882c-.097.168-.039.381.129.479l5.893 3.39c.167-.174.34-.344.518-.51l-6.06-3.487c-.055-.032-.115-.047-.175-.047-.121 0-.24.063-.305.175zm-1.022 2c-.078.176.001.383.178.462L7.974 15.8c.147-.19.299-.378.456-.563l-6.013-2.67c-.047-.02-.095-.03-.143-.03-.134 0-.262.078-.32.208zm-.807 2.095c-.06.184.042.381.226.441l5.694 1.845c.125-.207.255-.41.39-.61l-5.867-1.9c-.036-.012-.073-.018-.109-.018-.148 0-.285.095-.334.242zm-.582 2.168c-.04.19.08.375.27.415l5.462 1.158c.1-.22.206-.436.317-.649L.98 16.74c-.024-.005-.05-.008-.074-.008-.162 0-.308.112-.342.277zM.21 19.225c-.02.192.12.365.313.385l5.164.541c.073-.229.152-.455.237-.679l-5.328-.558-.038-.002c-.177 0-.329.134-.348.313zm.233 1.892c-.194 0-.35.157-.35.35 0 .193.156.35.35.35h4.82c.045-.235.095-.469.152-.7H.444zm.08 2.207c-.193.02-.333.192-.313.384.02.18.172.313.349.313l.037-.001 4.446-.466c.016-.238.037-.475.064-.71l-4.583.48zm42.45.468c.01-.026.017-.055.02-.084.001-.006.002-.011.001-.016l-.02.1zM.834 25.51c-.19.04-.31.226-.27.415.035.164.18.277.342.277.025 0 .05-.002.074-.008l4.063-.86v-.001c-.014-.237-.024-.474-.026-.71l-4.183.887zm.538 2.142c-.184.06-.286.257-.226.44.049.148.186.243.334.243.036 0 .073-.006.109-.018l3.685-1.194c-.046-.232-.085-.465-.117-.697l-3.785 1.226zm40.148.634l.098.031c.036.012.073.018.108.018.149 0 .286-.095.334-.242.06-.184-.041-.381-.225-.441l-.038-.012c-.088.216-.18.432-.277.646zm-39.389 1.44c-.177.079-.256.286-.178.462.058.13.187.208.321.208.048 0 .096-.01.143-.03l3.316-1.473c-.072-.223-.138-.448-.201-.676l-3.4 1.51zm38.391.52v.001l.268.118c.046.021.094.03.143.03.134 0 .262-.077.32-.207.079-.176 0-.383-.178-.462l-.213-.095c-.109.207-.223.412-.34.615zM3.104 31.71c-.168.097-.226.311-.129.478.066.112.183.175.304.175.06 0 .12-.015.176-.046l2.932-1.688c-.094-.216-.185-.433-.27-.653L3.103 31.71zm36.245.374l.403.233c.055.031.115.046.175.046.121 0 .239-.063.304-.175.097-.167.04-.38-.128-.478l-.357-.205c-.13.196-.262.389-.397.58zm-35.07 1.497c-.157.114-.19.333-.077.49.069.094.175.143.284.143.071 0 .144-.021.206-.067l2.54-1.84c-.116-.203-.23-.41-.338-.62l-2.615 1.894zm33.732.203l.503.363c.062.046.135.067.206.067.11 0 .216-.05.285-.144.113-.156.079-.375-.078-.489l-.463-.335c-.148.182-.3.361-.453.538zM5.645 35.32c-.145.129-.156.35-.026.493.069.077.164.116.26.116.084 0 .168-.03.235-.09l2.155-1.934c-.139-.19-.274-.383-.404-.579l-2.22 1.994zm30.88.01l.567.51c.068.06.152.09.235.09.096 0 .192-.04.26-.117.13-.143.12-.364-.025-.493l-.534-.48c-.166.166-.333.33-.503.49zm-29.34 1.577c-.13.144-.119.365.026.494.067.06.151.09.234.09.096 0 .192-.039.26-.116L9.492 35.4c-.158-.173-.314-.35-.466-.53l-1.84 2.038zm27.72-.192l.596.66c.068.077.164.116.26.116.084 0 .168-.03.235-.09.144-.13.156-.35.026-.494l-.57-.63c-.18.15-.362.295-.548.438zm-26.022 1.61c-.114.157-.08.375.077.489.062.045.135.066.206.066.109 0 .216-.05.284-.143l1.438-1.973c-.177-.155-.351-.312-.521-.475l-1.484 2.036zm24.283-.4l.59.812c.069.094.176.143.284.143.072 0 .144-.021.206-.066.157-.114.192-.332.078-.489l-.57-.781c-.194.13-.39.258-.588.382zM10.719 39.56c-.096.167-.039.38.13.478.054.032.115.046.174.046.121 0 .24-.063.305-.174l1.117-1.93c-.193-.134-.384-.272-.571-.413l-1.155 1.993zm20.61-.6l.55.95c.065.111.182.174.303.174.06 0 .12-.014.176-.046.167-.097.225-.311.129-.478l-.536-.923c-.205.11-.413.219-.623.323zm-18.652 1.635c-.079.177 0 .383.178.462.046.021.094.03.142.03.135 0 .262-.077.32-.207l.83-1.855c-.137-.073-.272-.148-.406-.225l-.208-.121-.856 1.916zm16.733-.788l.479 1.073c.057.13.186.207.32.207.048 0 .096-.009.143-.03.177-.079.256-.285.178-.462l-.47-1.05c-.215.09-.431.178-.65.262zM14.73 41.419c-.06.184.04.381.225.44.036.013.073.018.109.018.148 0 .285-.094.334-.242l.571-1.753c-.217-.087-.433-.18-.649-.275l-.59 1.812zm12.696-.952l.38 1.168c.05.148.187.242.335.242.036 0 .072-.005.108-.017.184-.06.286-.258.226-.441l-.376-1.154c-.223.071-.447.139-.673.202zm-10.566 1.558c-.04.19.08.376.27.416.025.005.049.007.073.007.162 0 .308-.112.343-.276l.35-1.64c-.227-.06-.451-.128-.675-.199l-.361 1.692zm8.532-1.103l.266 1.25c.036.164.18.276.343.276.024 0 .049-.002.073-.007.19-.04.311-.226.27-.416l-.261-1.23c-.23.048-.461.09-.691.127zm-6.35 1.486c-.021.192.12.365.312.385l.037.001c.177 0 .33-.133.348-.313l.16-1.522c-.23-.035-.462-.075-.693-.12l-.165 1.569zm4.281-1.269l.142 1.342c.02.18.171.313.348.313l.038-.001c.192-.02.332-.193.312-.385l-.14-1.315c-.232.02-.466.035-.7.046zm-2.072 1.42c0 .194.157.35.351.35.194 0 .351-.156.351-.35v-1.411c-.234-.008-.468-.02-.702-.038v1.45z"/>
        <path id="prefix__c" d="M12.17.086l.854 2.662c.049.151.186.247.335.247.036 0 .073-.006.11-.018.184-.06.286-.262.226-.45l-.79-2.46h-.11c-.208 0-.416.006-.625.019zm1.68 2.4c.036.168.181.283.344.283.024 0 .05-.003.074-.008.191-.04.312-.23.272-.423L14.08.146c-.243-.031-.487-.053-.734-.064l.504 2.404zM10.97.228l1.26 2.87c.058.133.188.212.323.212.047 0 .096-.01.143-.032.178-.08.257-.29.178-.471L11.696.125c-.242.025-.484.059-.727.103zm3.728 2.084c.02.184.172.32.35.32l.038-.001c.193-.02.333-.197.313-.393L15.203.346c-.239-.056-.48-.104-.724-.143l.219 2.11zM10.019.44c-.088.024-.174.049-.26.074l1.717 3.015c.066.115.184.179.306.179.06 0 .12-.015.176-.048.168-.099.226-.317.13-.488L10.467.328c-.15.035-.3.072-.449.112zm5.541 1.79c0 .197.158.357.353.357.194 0 .352-.16.352-.357V.655c-.232-.08-.467-.153-.705-.218V2.23zM8.547.935l2.225 3.104c.069.096.176.147.285.147.072 0 .145-.022.207-.068.157-.116.193-.34.078-.499L9.235.68c-.233.079-.463.164-.688.255zm7.879 1.303c-.02.196.12.372.314.393l.037.001c.178 0 .331-.136.35-.32l.13-1.254c-.222-.104-.45-.2-.68-.288l-.151 1.468zm-9.083-.75l2.781 3.131c.07.079.166.119.262.119.084 0 .168-.03.236-.093.145-.131.156-.357.026-.503L8.005 1.166c-.225.1-.445.208-.662.321zm9.943.85c-.04.193.08.382.271.423.025.005.05.008.074.008.163 0 .31-.115.344-.283l.2-.947c-.212-.124-.428-.242-.648-.35l-.241 1.149zm.845.19c-.06.187.042.388.227.45.035.011.072.017.108.017.15 0 .287-.096.336-.247l.211-.66c-.198-.145-.402-.28-.61-.41l-.272.85zM6.162 2.184l3.376 3.08c.068.062.152.093.236.093.096 0 .193-.04.262-.119.13-.146.119-.372-.026-.504l-3.222-2.94c-.213.124-.421.255-.626.39zm12.79.622c-.08.18 0 .391.178.471.046.022.095.032.143.032.135 0 .263-.08.322-.212l.18-.409c-.185-.16-.375-.314-.57-.46l-.254.578zm-13.927.219L9.022 5.97c.063.046.136.068.208.068.109 0 .216-.05.285-.147.114-.16.079-.383-.079-.5L5.608 2.573c-.2.145-.394.297-.583.454zm14.713.146c-.097.17-.04.39.129.488.055.033.116.048.176.048.122 0 .24-.064.306-.179l.109-.192c-.17-.175-.344-.344-.525-.508l-.195.343zm.745.447c-.114.16-.08.383.078.499.063.046.136.068.207.068.11 0 .217-.05.286-.147l.012-.018c-.153-.188-.313-.37-.478-.547l-.105.145zM3.95 4.015l4.632 2.71c.056.032.116.048.175.048.123 0 .24-.065.307-.18.097-.17.039-.388-.13-.487L4.481 3.5c-.182.166-.36.338-.53.515zm17.254.63c.067.063.151.093.236.093.048 0 .096-.01.14-.03-.13-.19-.267-.376-.41-.556-.122.147-.108.365.034.494zM2.96 5.15l5.26 2.374c.047.021.096.03.144.03.135 0 .263-.078.322-.211.08-.18 0-.392-.179-.472L3.431 4.579c-.163.186-.32.375-.47.57zm18.83.09c.055.063.127.101.203.114-.09-.152-.183-.302-.28-.45-.033.114-.008.242.077.336zM2.077 6.422l5.869 1.933c.036.011.073.017.109.017.149 0 .286-.096.335-.247.06-.187-.042-.389-.226-.45L2.48 5.803c-.14.203-.275.409-.403.619zm-.753 1.402L7.758 9.21c.025.006.05.008.073.008.163 0 .31-.115.345-.282.04-.193-.08-.383-.27-.424L1.651 7.165c-.115.216-.225.436-.328.66zm-.6 1.52l6.936.738.037.002c.178 0 .331-.137.35-.32.02-.196-.12-.372-.313-.392l-6.762-.72c-.09.228-.172.458-.248.692zm18.425.9c-.195 0-.352.161-.352.358 0 .198.157.357.352.357h17.756c.028-.237.05-.476.07-.714H19.148zm-18.688 0c-.06.237-.115.476-.162.715h7.353c.194 0 .353-.16.353-.357 0-.197-.159-.357-.353-.357H.462zm23.317 1.197c-.02.196.12.372.314.393l12.446 1.325c.052-.233.1-.468.143-.703l-12.515-1.333-.039-.002c-.178 0-.33.136-.35.32zM7.66 11.123l-7.518.8c-.03.24-.054.483-.07.727l7.662-.816c.193-.021.333-.197.313-.393-.02-.184-.171-.32-.35-.32-.012 0-.024 0-.037.002zm15.99 1.146c-.041.193.08.383.27.423l12.034 2.593c.076-.227.148-.455.214-.684l-12.1-2.607c-.025-.006-.05-.008-.074-.008-.163 0-.31.115-.345.283zm-15.892-.275L.034 13.658c0 .241.008.483.02.725l7.851-1.69c.19-.041.312-.23.271-.424-.035-.168-.181-.283-.344-.283-.025 0-.05.002-.074.008zm15.678 1.086c-.06.187.04.389.226.45l11.507 3.79c.098-.22.19-.439.28-.66l-11.57-3.81c-.035-.011-.072-.017-.108-.017-.148 0-.287.096-.335.247zm-15.49-.23L.149 15.418c.032.237.07.475.113.714l7.902-2.602c.184-.061.286-.263.226-.45-.048-.151-.187-.247-.335-.247-.036 0-.073.005-.11.017zm15.193 1.013c-.08.18 0 .392.178.472l10.88 4.909c.118-.207.232-.417.343-.628l-10.936-4.934c-.046-.02-.095-.03-.143-.03-.135 0-.264.078-.322.211zm-14.917-.18L.494 17.168l.005.018c.06.227.124.451.193.674l7.816-3.526c.178-.08.258-.291.179-.472-.059-.133-.187-.211-.322-.211-.048 0-.097.01-.143.03zm14.54.927c-.096.171-.038.39.13.489l10.163 5.947c.137-.194.27-.39.4-.59l-10.21-5.976c-.056-.033-.116-.048-.176-.048-.122 0-.24.064-.306.178zm-14.181-.13l-7.536 4.41c.085.225.174.448.268.669l7.62-4.46c.169-.1.227-.318.13-.489-.066-.114-.185-.178-.307-.178-.06 0-.12.015-.175.047zm13.73.834c-.114.16-.08.382.077.498l9.369 6.899c.155-.18.307-.362.456-.547l-9.41-6.93c-.063-.045-.135-.068-.207-.068-.109 0-.216.052-.285.148zm-13.289-.08L1.78 20.568c.108.214.22.426.336.635l7.32-5.39c.158-.116.193-.339.079-.498-.07-.096-.177-.148-.286-.148-.072 0-.144.023-.207.069zm12.768.732c-.13.147-.119.372.026.504l8.5 7.756c.17-.163.34-.329.506-.498l-8.535-7.789c-.067-.061-.151-.092-.235-.092-.097 0-.193.04-.262.119zm-12.252-.027l-6.835 6.238c.13.2.264.398.403.592l6.904-6.3c.145-.131.157-.356.026-.503-.07-.079-.166-.119-.262-.119-.084 0-.169.03-.236.092zm11.666.62c-.145.131-.157.357-.026.504l7.568 8.52c.187-.147.37-.295.552-.447l-7.597-8.551c-.069-.079-.165-.119-.261-.119-.084 0-.169.03-.236.093zm-11.08.026L3.81 23.693c.151.185.306.366.466.543l6.373-7.173c.13-.147.119-.372-.026-.504-.068-.062-.152-.093-.236-.093-.096 0-.192.04-.262.119zm10.436.502c-.157.116-.192.34-.077.499l6.581 9.181c.2-.126.398-.256.593-.39l-6.604-9.211c-.07-.096-.177-.147-.286-.147-.072 0-.144.022-.207.068zm-9.787.079L5.09 25.091c.17.166.344.33.522.488l5.73-7.993c.114-.16.08-.383-.078-.5-.063-.045-.135-.067-.207-.067-.109 0-.216.05-.285.147zm.703.509l-4.94 8.673c.186.145.377.288.572.425l4.98-8.74c.096-.172.038-.39-.13-.49-.055-.031-.116-.047-.175-.047-.122 0-.241.064-.307.179zm8.215.18c0 .062.016.124.047.178l5.55 9.742c.21-.106.42-.215.627-.329l-5.559-9.756c-.057-.114-.176-.193-.313-.193-.195 0-.352.16-.352.357zm-.561.072c-.178.08-.258.29-.179.471l4.484 10.206c.22-.086.438-.175.653-.269l-4.493-10.227c-.058-.133-.187-.212-.322-.212-.048 0-.097.01-.143.03zm-6.9.18l-4.102 9.338c.093.058.185.113.28.168.11.065.223.128.334.19l4.132-9.405c.08-.18 0-.391-.178-.471-.047-.021-.096-.031-.144-.031-.134 0-.263.079-.321.212zm6.128.12c-.185.06-.287.262-.227.45l3.39 10.572c.226-.065.451-.133.675-.206l-3.394-10.587c-.049-.15-.187-.247-.336-.247-.036 0-.072.006-.108.018zm-5.334.23l-3.176 9.908c.214.1.431.195.65.285l3.197-9.973c.06-.188-.042-.39-.227-.45-.036-.012-.073-.018-.109-.018-.148 0-.286.096-.335.247zm4.533-.014c-.19.042-.312.231-.271.424l2.27 10.824c.232-.037.463-.08.694-.128l-2.275-10.845c-.035-.168-.181-.283-.344-.283-.024 0-.05.003-.074.008zm-3.707.275l-2.174 10.368c.225.074.45.143.677.207l2.187-10.426c.04-.193-.08-.382-.272-.424-.025-.005-.05-.008-.074-.008-.162 0-.309.115-.344.283zm2.89-.144c-.193.02-.334.197-.314.393l1.133 10.931c.235-.01.47-.024.704-.045l-1.136-10.961c-.019-.183-.172-.32-.35-.32l-.037.002zm-2.042.318l-1.11 10.7c.232.045.464.087.697.122L15.4 18.967c.02-.196-.12-.373-.313-.393l-.037-.002c-.178 0-.332.137-.351.32zm.862.082v10.89c.235.019.47.032.705.04v-10.93c0-.196-.158-.357-.352-.357-.195 0-.353.16-.353.357z"/>
    </defs>
    <g fill="none" fill-rule="evenodd">
        <g transform="translate(0 .5)">
            <mask id="prefix__b" fill="#fff">
                <use xlink:href="#prefix__a"/>
            </mask>
            <path fill="#FFF" d="M21.603.024c-.194 0-.35.157-.35.35v10.335c.236.058.47.124.701.197V.373c0-.192-.157-.35-.35-.35zm1.863.429L22.35 11.04c.229.082.454.171.677.267L24.164.526c.02-.192-.12-.365-.312-.384-.013-.002-.025-.002-.038-.002-.177 0-.33.133-.348.313zM19.355.142c-.193.019-.333.192-.313.384l1.05 9.957c.242.034.481.076.719.126L19.74.453c-.019-.18-.171-.313-.349-.313-.012 0-.025 0-.037.002zm6.304.62l-2.281 10.703c.219.102.435.213.646.33L26.346.906c.04-.188-.081-.374-.27-.415-.026-.005-.05-.008-.074-.008-.162 0-.308.113-.343.278zm-8.528-.27c-.19.04-.31.227-.27.415l2.019 9.471c.244.008.487.024.728.048L17.548.762c-.036-.165-.182-.278-.344-.278-.024 0-.049.003-.073.008zm10.677.806L24.33 11.969c.208.121.412.25.612.386l3.534-10.841c.06-.184-.042-.381-.226-.44-.036-.013-.072-.018-.108-.018-.148 0-.286.094-.334.242zm-12.852-.225c-.184.06-.285.257-.225.44l2.898 8.892c.243-.019.485-.03.727-.032l-2.957-9.075c-.049-.148-.187-.242-.334-.242-.036 0-.073.005-.109.017zm14.933.982L25.206 12.54c.195.14.386.287.572.439l4.752-10.64c.078-.176 0-.383-.178-.461-.046-.02-.095-.03-.143-.03-.134 0-.262.077-.32.207zm-17.034-.177c-.178.078-.257.285-.178.462l3.678 8.236c.24-.047.479-.084.717-.114l-3.754-8.407c-.058-.13-.187-.208-.32-.208-.049 0-.097.01-.143.03zm19.023 1.146L26.003 13.17c.182.156.358.318.529.486l5.955-10.28c.096-.168.038-.382-.13-.479-.054-.031-.115-.047-.174-.047-.121 0-.24.063-.305.175zm-21.03-.128c-.168.097-.225.311-.129.478l4.356 7.521c.151-.046.304-.09.458-.131.08-.022.161-.042.241-.061l-4.446-7.679c-.066-.112-.184-.175-.305-.175-.06 0-.12.015-.175.047zm22.908 1.3l-7.033 9.65c.167.17.329.347.483.529l7.118-9.767c.114-.156.079-.375-.078-.489-.062-.045-.134-.067-.206-.067-.108 0-.215.05-.284.145zM8.96 4.12c-.157.114-.191.333-.077.49l4.914 6.741c.223-.091.449-.178.679-.258L9.45 4.197c-.068-.094-.175-.145-.284-.145-.071 0-.144.022-.206.067zM35.5 5.557l-8.134 9.007c.15.183.295.37.434.563l8.222-9.102c.13-.143.118-.364-.026-.493-.067-.06-.151-.09-.235-.09-.096 0-.191.039-.26.115zM7.21 5.532c-.144.129-.155.35-.025.493l5.348 5.92c.213-.114.43-.221.65-.324L7.705 5.557c-.07-.076-.165-.115-.26-.115-.085 0-.168.03-.235.09zm29.882 1.56l-9.16 8.223c.135.194.264.393.385.596l9.245-8.299c.144-.129.156-.35.026-.493-.07-.077-.165-.116-.261-.116-.084 0-.168.03-.235.09zM5.62 7.12c-.13.143-.119.364.026.493l5.652 5.074c.2-.135.405-.265.614-.39L6.114 7.093c-.067-.06-.15-.09-.234-.09-.096 0-.192.039-.261.116zm32.895 1.666l-10.09 7.308c.119.203.23.411.335.623l10.168-7.365c.157-.113.191-.332.078-.488-.07-.094-.176-.144-.285-.144-.071 0-.144.021-.206.066zm-34.312.078c-.114.156-.08.375.077.488l5.832 4.224c.186-.154.375-.305.57-.451l-5.99-4.339c-.061-.045-.133-.066-.205-.066-.108 0-.215.05-.284.144zm-1.227 1.882c-.097.168-.039.381.129.479l5.893 3.39c.167-.174.34-.344.518-.51l-6.06-3.487c-.055-.032-.115-.047-.175-.047-.121 0-.24.063-.305.175zm-1.022 2c-.078.176.001.383.178.462L7.974 15.8c.147-.19.299-.378.456-.563l-6.013-2.67c-.047-.02-.095-.03-.143-.03-.134 0-.262.078-.32.208zm-.807 2.095c-.06.184.042.381.226.441l5.694 1.845c.125-.207.255-.41.39-.61l-5.867-1.9c-.036-.012-.073-.018-.109-.018-.148 0-.285.095-.334.242zm-.582 2.168c-.04.19.08.375.27.415l5.462 1.158c.1-.22.206-.436.317-.649L.98 16.74c-.024-.005-.05-.008-.074-.008-.162 0-.308.112-.342.277zM.21 19.225c-.02.192.12.365.313.385l5.164.541c.073-.229.152-.455.237-.679l-5.328-.558-.038-.002c-.177 0-.329.134-.348.313zm.233 1.892c-.194 0-.35.157-.35.35 0 .193.156.35.35.35h4.82c.045-.235.095-.469.152-.7H.444zm.08 2.207c-.193.02-.333.192-.313.384.02.18.172.313.349.313l.037-.001 4.446-.466c.016-.238.037-.475.064-.71l-4.583.48zm42.45.468c.01-.026.017-.055.02-.084.001-.006.002-.011.001-.016l-.02.1zM.834 25.51c-.19.04-.31.226-.27.415.035.164.18.277.342.277.025 0 .05-.002.074-.008l4.063-.86v-.001c-.014-.237-.024-.474-.026-.71l-4.183.887zm.538 2.142c-.184.06-.286.257-.226.44.049.148.186.243.334.243.036 0 .073-.006.109-.018l3.685-1.194c-.046-.232-.085-.465-.117-.697l-3.785 1.226zm40.148.634l.098.031c.036.012.073.018.108.018.149 0 .286-.095.334-.242.06-.184-.041-.381-.225-.441l-.038-.012c-.088.216-.18.432-.277.646zm-39.389 1.44c-.177.079-.256.286-.178.462.058.13.187.208.321.208.048 0 .096-.01.143-.03l3.316-1.473c-.072-.223-.138-.448-.201-.676l-3.4 1.51zm38.391.52v.001l.268.118c.046.021.094.03.143.03.134 0 .262-.077.32-.207.079-.176 0-.383-.178-.462l-.213-.095c-.109.207-.223.412-.34.615zM3.104 31.71c-.168.097-.226.311-.129.478.066.112.183.175.304.175.06 0 .12-.015.176-.046l2.932-1.688c-.094-.216-.185-.433-.27-.653L3.103 31.71zm36.245.374l.403.233c.055.031.115.046.175.046.121 0 .239-.063.304-.175.097-.167.04-.38-.128-.478l-.357-.205c-.13.196-.262.389-.397.58zm-35.07 1.497c-.157.114-.19.333-.077.49.069.094.175.143.284.143.071 0 .144-.021.206-.067l2.54-1.84c-.116-.203-.23-.41-.338-.62l-2.615 1.894zm33.732.203l.503.363c.062.046.135.067.206.067.11 0 .216-.05.285-.144.113-.156.079-.375-.078-.489l-.463-.335c-.148.182-.3.361-.453.538zM5.645 35.32c-.145.129-.156.35-.026.493.069.077.164.116.26.116.084 0 .168-.03.235-.09l2.155-1.934c-.139-.19-.274-.383-.404-.579l-2.22 1.994zm30.88.01l.567.51c.068.06.152.09.235.09.096 0 .192-.04.26-.117.13-.143.12-.364-.025-.493l-.534-.48c-.166.166-.333.33-.503.49zm-29.34 1.577c-.13.144-.119.365.026.494.067.06.151.09.234.09.096 0 .192-.039.26-.116L9.492 35.4c-.158-.173-.314-.35-.466-.53l-1.84 2.038zm27.72-.192l.596.66c.068.077.164.116.26.116.084 0 .168-.03.235-.09.144-.13.156-.35.026-.494l-.57-.63c-.18.15-.362.295-.548.438zm-26.022 1.61c-.114.157-.08.375.077.489.062.045.135.066.206.066.109 0 .216-.05.284-.143l1.438-1.973c-.177-.155-.351-.312-.521-.475l-1.484 2.036zm24.283-.4l.59.812c.069.094.176.143.284.143.072 0 .144-.021.206-.066.157-.114.192-.332.078-.489l-.57-.781c-.194.13-.39.258-.588.382zM10.719 39.56c-.096.167-.039.38.13.478.054.032.115.046.174.046.121 0 .24-.063.305-.174l1.117-1.93c-.193-.134-.384-.272-.571-.413l-1.155 1.993zm20.61-.6l.55.95c.065.111.182.174.303.174.06 0 .12-.014.176-.046.167-.097.225-.311.129-.478l-.536-.923c-.205.11-.413.219-.623.323zm-18.652 1.635c-.079.177 0 .383.178.462.046.021.094.03.142.03.135 0 .262-.077.32-.207l.83-1.855c-.137-.073-.272-.148-.406-.225l-.208-.121-.856 1.916zm16.733-.788l.479 1.073c.057.13.186.207.32.207.048 0 .096-.009.143-.03.177-.079.256-.285.178-.462l-.47-1.05c-.215.09-.431.178-.65.262zM14.73 41.419c-.06.184.04.381.225.44.036.013.073.018.109.018.148 0 .285-.094.334-.242l.571-1.753c-.217-.087-.433-.18-.649-.275l-.59 1.812zm12.696-.952l.38 1.168c.05.148.187.242.335.242.036 0 .072-.005.108-.017.184-.06.286-.258.226-.441l-.376-1.154c-.223.071-.447.139-.673.202zm-10.566 1.558c-.04.19.08.376.27.416.025.005.049.007.073.007.162 0 .308-.112.343-.276l.35-1.64c-.227-.06-.451-.128-.675-.199l-.361 1.692zm8.532-1.103l.266 1.25c.036.164.18.276.343.276.024 0 .049-.002.073-.007.19-.04.311-.226.27-.416l-.261-1.23c-.23.048-.461.09-.691.127zm-6.35 1.486c-.021.192.12.365.312.385l.037.001c.177 0 .33-.133.348-.313l.16-1.522c-.23-.035-.462-.075-.693-.12l-.165 1.569zm4.281-1.269l.142 1.342c.02.18.171.313.348.313l.038-.001c.192-.02.332-.193.312-.385l-.14-1.315c-.232.02-.466.035-.7.046zm-2.072 1.42c0 .194.157.35.351.35.194 0 .351-.156.351-.35v-1.411c-.234-.008-.468-.02-.702-.038v1.45z" mask="url(#prefix__b)"/>
        </g>
        <g transform="translate(6 11.5)">
            <mask id="prefix__d" fill="#fff">
                <use xlink:href="#prefix__c"/>
            </mask>
            <path fill="#FFF" d="M12.17.086l.854 2.662c.049.151.186.247.335.247.036 0 .073-.006.11-.018.184-.06.286-.262.226-.45l-.79-2.46h-.11c-.208 0-.416.006-.625.019zm1.68 2.4c.036.168.181.283.344.283.024 0 .05-.003.074-.008.191-.04.312-.23.272-.423L14.08.146c-.243-.031-.487-.053-.734-.064l.504 2.404zM10.97.228l1.26 2.87c.058.133.188.212.323.212.047 0 .096-.01.143-.032.178-.08.257-.29.178-.471L11.696.125c-.242.025-.484.059-.727.103zm3.728 2.084c.02.184.172.32.35.32l.038-.001c.193-.02.333-.197.313-.393L15.203.346c-.239-.056-.48-.104-.724-.143l.219 2.11zM10.019.44c-.088.024-.174.049-.26.074l1.717 3.015c.066.115.184.179.306.179.06 0 .12-.015.176-.048.168-.099.226-.317.13-.488L10.467.328c-.15.035-.3.072-.449.112zm5.541 1.79c0 .197.158.357.353.357.194 0 .352-.16.352-.357V.655c-.232-.08-.467-.153-.705-.218V2.23zM8.547.935l2.225 3.104c.069.096.176.147.285.147.072 0 .145-.022.207-.068.157-.116.193-.34.078-.499L9.235.68c-.233.079-.463.164-.688.255zm7.879 1.303c-.02.196.12.372.314.393l.037.001c.178 0 .331-.136.35-.32l.13-1.254c-.222-.104-.45-.2-.68-.288l-.151 1.468zm-9.083-.75l2.781 3.131c.07.079.166.119.262.119.084 0 .168-.03.236-.093.145-.131.156-.357.026-.503L8.005 1.166c-.225.1-.445.208-.662.321zm9.943.85c-.04.193.08.382.271.423.025.005.05.008.074.008.163 0 .31-.115.344-.283l.2-.947c-.212-.124-.428-.242-.648-.35l-.241 1.149zm.845.19c-.06.187.042.388.227.45.035.011.072.017.108.017.15 0 .287-.096.336-.247l.211-.66c-.198-.145-.402-.28-.61-.41l-.272.85zM6.162 2.184l3.376 3.08c.068.062.152.093.236.093.096 0 .193-.04.262-.119.13-.146.119-.372-.026-.504l-3.222-2.94c-.213.124-.421.255-.626.39zm12.79.622c-.08.18 0 .391.178.471.046.022.095.032.143.032.135 0 .263-.08.322-.212l.18-.409c-.185-.16-.375-.314-.57-.46l-.254.578zm-13.927.219L9.022 5.97c.063.046.136.068.208.068.109 0 .216-.05.285-.147.114-.16.079-.383-.079-.5L5.608 2.573c-.2.145-.394.297-.583.454zm14.713.146c-.097.17-.04.39.129.488.055.033.116.048.176.048.122 0 .24-.064.306-.179l.109-.192c-.17-.175-.344-.344-.525-.508l-.195.343zm.745.447c-.114.16-.08.383.078.499.063.046.136.068.207.068.11 0 .217-.05.286-.147l.012-.018c-.153-.188-.313-.37-.478-.547l-.105.145zM3.95 4.015l4.632 2.71c.056.032.116.048.175.048.123 0 .24-.065.307-.18.097-.17.039-.388-.13-.487L4.481 3.5c-.182.166-.36.338-.53.515zm17.254.63c.067.063.151.093.236.093.048 0 .096-.01.14-.03-.13-.19-.267-.376-.41-.556-.122.147-.108.365.034.494zM2.96 5.15l5.26 2.374c.047.021.096.03.144.03.135 0 .263-.078.322-.211.08-.18 0-.392-.179-.472L3.431 4.579c-.163.186-.32.375-.47.57zm18.83.09c.055.063.127.101.203.114-.09-.152-.183-.302-.28-.45-.033.114-.008.242.077.336zM2.077 6.422l5.869 1.933c.036.011.073.017.109.017.149 0 .286-.096.335-.247.06-.187-.042-.389-.226-.45L2.48 5.803c-.14.203-.275.409-.403.619zm-.753 1.402L7.758 9.21c.025.006.05.008.073.008.163 0 .31-.115.345-.282.04-.193-.08-.383-.27-.424L1.651 7.165c-.115.216-.225.436-.328.66zm-.6 1.52l6.936.738.037.002c.178 0 .331-.137.35-.32.02-.196-.12-.372-.313-.392l-6.762-.72c-.09.228-.172.458-.248.692zm18.425.9c-.195 0-.352.161-.352.358 0 .198.157.357.352.357h17.756c.028-.237.05-.476.07-.714H19.148zm-18.688 0c-.06.237-.115.476-.162.715h7.353c.194 0 .353-.16.353-.357 0-.197-.159-.357-.353-.357H.462zm23.317 1.197c-.02.196.12.372.314.393l12.446 1.325c.052-.233.1-.468.143-.703l-12.515-1.333-.039-.002c-.178 0-.33.136-.35.32zM7.66 11.123l-7.518.8c-.03.24-.054.483-.07.727l7.662-.816c.193-.021.333-.197.313-.393-.02-.184-.171-.32-.35-.32-.012 0-.024 0-.037.002zm15.99 1.146c-.041.193.08.383.27.423l12.034 2.593c.076-.227.148-.455.214-.684l-12.1-2.607c-.025-.006-.05-.008-.074-.008-.163 0-.31.115-.345.283zm-15.892-.275L.034 13.658c0 .241.008.483.02.725l7.851-1.69c.19-.041.312-.23.271-.424-.035-.168-.181-.283-.344-.283-.025 0-.05.002-.074.008zm15.678 1.086c-.06.187.04.389.226.45l11.507 3.79c.098-.22.19-.439.28-.66l-11.57-3.81c-.035-.011-.072-.017-.108-.017-.148 0-.287.096-.335.247zm-15.49-.23L.149 15.418c.032.237.07.475.113.714l7.902-2.602c.184-.061.286-.263.226-.45-.048-.151-.187-.247-.335-.247-.036 0-.073.005-.11.017zm15.193 1.013c-.08.18 0 .392.178.472l10.88 4.909c.118-.207.232-.417.343-.628l-10.936-4.934c-.046-.02-.095-.03-.143-.03-.135 0-.264.078-.322.211zm-14.917-.18L.494 17.168l.005.018c.06.227.124.451.193.674l7.816-3.526c.178-.08.258-.291.179-.472-.059-.133-.187-.211-.322-.211-.048 0-.097.01-.143.03zm14.54.927c-.096.171-.038.39.13.489l10.163 5.947c.137-.194.27-.39.4-.59l-10.21-5.976c-.056-.033-.116-.048-.176-.048-.122 0-.24.064-.306.178zm-14.181-.13l-7.536 4.41c.085.225.174.448.268.669l7.62-4.46c.169-.1.227-.318.13-.489-.066-.114-.185-.178-.307-.178-.06 0-.12.015-.175.047zm13.73.834c-.114.16-.08.382.077.498l9.369 6.899c.155-.18.307-.362.456-.547l-9.41-6.93c-.063-.045-.135-.068-.207-.068-.109 0-.216.052-.285.148zm-13.289-.08L1.78 20.568c.108.214.22.426.336.635l7.32-5.39c.158-.116.193-.339.079-.498-.07-.096-.177-.148-.286-.148-.072 0-.144.023-.207.069zm12.768.732c-.13.147-.119.372.026.504l8.5 7.756c.17-.163.34-.329.506-.498l-8.535-7.789c-.067-.061-.151-.092-.235-.092-.097 0-.193.04-.262.119zm-12.252-.027l-6.835 6.238c.13.2.264.398.403.592l6.904-6.3c.145-.131.157-.356.026-.503-.07-.079-.166-.119-.262-.119-.084 0-.169.03-.236.092zm11.666.62c-.145.131-.157.357-.026.504l7.568 8.52c.187-.147.37-.295.552-.447l-7.597-8.551c-.069-.079-.165-.119-.261-.119-.084 0-.169.03-.236.093zm-11.08.026L3.81 23.693c.151.185.306.366.466.543l6.373-7.173c.13-.147.119-.372-.026-.504-.068-.062-.152-.093-.236-.093-.096 0-.192.04-.262.119zm10.436.502c-.157.116-.192.34-.077.499l6.581 9.181c.2-.126.398-.256.593-.39l-6.604-9.211c-.07-.096-.177-.147-.286-.147-.072 0-.144.022-.207.068zm-9.787.079L5.09 25.091c.17.166.344.33.522.488l5.73-7.993c.114-.16.08-.383-.078-.5-.063-.045-.135-.067-.207-.067-.109 0-.216.05-.285.147zm.703.509l-4.94 8.673c.186.145.377.288.572.425l4.98-8.74c.096-.172.038-.39-.13-.49-.055-.031-.116-.047-.175-.047-.122 0-.241.064-.307.179zm8.215.18c0 .062.016.124.047.178l5.55 9.742c.21-.106.42-.215.627-.329l-5.559-9.756c-.057-.114-.176-.193-.313-.193-.195 0-.352.16-.352.357zm-.561.072c-.178.08-.258.29-.179.471l4.484 10.206c.22-.086.438-.175.653-.269l-4.493-10.227c-.058-.133-.187-.212-.322-.212-.048 0-.097.01-.143.03zm-6.9.18l-4.102 9.338c.093.058.185.113.28.168.11.065.223.128.334.19l4.132-9.405c.08-.18 0-.391-.178-.471-.047-.021-.096-.031-.144-.031-.134 0-.263.079-.321.212zm6.128.12c-.185.06-.287.262-.227.45l3.39 10.572c.226-.065.451-.133.675-.206l-3.394-10.587c-.049-.15-.187-.247-.336-.247-.036 0-.072.006-.108.018zm-5.334.23l-3.176 9.908c.214.1.431.195.65.285l3.197-9.973c.06-.188-.042-.39-.227-.45-.036-.012-.073-.018-.109-.018-.148 0-.286.096-.335.247zm4.533-.014c-.19.042-.312.231-.271.424l2.27 10.824c.232-.037.463-.08.694-.128l-2.275-10.845c-.035-.168-.181-.283-.344-.283-.024 0-.05.003-.074.008zm-3.707.275l-2.174 10.368c.225.074.45.143.677.207l2.187-10.426c.04-.193-.08-.382-.272-.424-.025-.005-.05-.008-.074-.008-.162 0-.309.115-.344.283zm2.89-.144c-.193.02-.334.197-.314.393l1.133 10.931c.235-.01.47-.024.704-.045l-1.136-10.961c-.019-.183-.172-.32-.35-.32l-.037.002zm-2.042.318l-1.11 10.7c.232.045.464.087.697.122L15.4 18.967c.02-.196-.12-.373-.313-.393l-.037-.002c-.178 0-.332.137-.351.32zm.862.082v10.89c.235.019.47.032.705.04v-10.93c0-.196-.158-.357-.352-.357-.195 0-.353.16-.353.357z" mask="url(#prefix__d)"/>
        </g>
    </g>
</svg>
